<mxfile host="app.diagrams.net" modified="2024-02-09T03:47:23.865Z" agent="Mozilla/5.0 (Macintosh; Intel Mac OS X 10_15_7) AppleWebKit/537.36 (KHTML, like Gecko) Chrome/120.0.0.0 Safari/537.36" etag="BtsIfTb0Vv4gh1NJmV2l" version="23.1.1" type="device">
  <diagram name="Page-1" id="oGcCUuIiFS4U_jD8WHVe">
    <mxGraphModel dx="2261" dy="1964" grid="1" gridSize="10" guides="1" tooltips="1" connect="1" arrows="1" fold="1" page="1" pageScale="1" pageWidth="827" pageHeight="1169" math="0" shadow="0">
      <root>
        <mxCell id="0" />
        <mxCell id="1" parent="0" />
        <mxCell id="pWZ-BDEYInPVpbbAbhPP-1" value="City" style="swimlane;fontStyle=1;align=center;verticalAlign=top;childLayout=stackLayout;horizontal=1;startSize=26;horizontalStack=0;resizeParent=1;resizeParentMax=0;resizeLast=0;collapsible=1;marginBottom=0;whiteSpace=wrap;html=1;" vertex="1" parent="1">
          <mxGeometry x="40" y="-30" width="160" height="90" as="geometry" />
        </mxCell>
        <mxCell id="pWZ-BDEYInPVpbbAbhPP-2" value="- id: Long&lt;br&gt;- name: String&lt;br&gt;- theatres: List&amp;lt;Theatre&amp;gt;" style="text;strokeColor=none;fillColor=none;align=left;verticalAlign=top;spacingLeft=4;spacingRight=4;overflow=hidden;rotatable=0;points=[[0,0.5],[1,0.5]];portConstraint=eastwest;whiteSpace=wrap;html=1;" vertex="1" parent="pWZ-BDEYInPVpbbAbhPP-1">
          <mxGeometry y="26" width="160" height="54" as="geometry" />
        </mxCell>
        <mxCell id="pWZ-BDEYInPVpbbAbhPP-3" value="" style="line;strokeWidth=1;fillColor=none;align=left;verticalAlign=middle;spacingTop=-1;spacingLeft=3;spacingRight=3;rotatable=0;labelPosition=right;points=[];portConstraint=eastwest;strokeColor=inherit;" vertex="1" parent="pWZ-BDEYInPVpbbAbhPP-1">
          <mxGeometry y="80" width="160" height="10" as="geometry" />
        </mxCell>
        <mxCell id="pWZ-BDEYInPVpbbAbhPP-16" value="" style="edgeStyle=orthogonalEdgeStyle;rounded=0;orthogonalLoop=1;jettySize=auto;html=1;endArrow=diamond;endFill=1;" edge="1" parent="1" source="pWZ-BDEYInPVpbbAbhPP-5" target="pWZ-BDEYInPVpbbAbhPP-13">
          <mxGeometry relative="1" as="geometry">
            <Array as="points">
              <mxPoint x="290" y="150" />
              <mxPoint x="290" y="150" />
            </Array>
          </mxGeometry>
        </mxCell>
        <mxCell id="pWZ-BDEYInPVpbbAbhPP-5" value="Theatre" style="swimlane;fontStyle=1;align=center;verticalAlign=top;childLayout=stackLayout;horizontal=1;startSize=26;horizontalStack=0;resizeParent=1;resizeParentMax=0;resizeLast=0;collapsible=1;marginBottom=0;whiteSpace=wrap;html=1;" vertex="1" parent="1">
          <mxGeometry x="10" y="90" width="220" height="120" as="geometry" />
        </mxCell>
        <mxCell id="pWZ-BDEYInPVpbbAbhPP-6" value="- id: Long&lt;br&gt;- name: String&lt;br&gt;- address: Address&lt;br&gt;- city: City&lt;br&gt;- auditorium: List&amp;lt;Auditorium&amp;gt;" style="text;strokeColor=none;fillColor=none;align=left;verticalAlign=top;spacingLeft=4;spacingRight=4;overflow=hidden;rotatable=0;points=[[0,0.5],[1,0.5]];portConstraint=eastwest;whiteSpace=wrap;html=1;" vertex="1" parent="pWZ-BDEYInPVpbbAbhPP-5">
          <mxGeometry y="26" width="220" height="84" as="geometry" />
        </mxCell>
        <mxCell id="pWZ-BDEYInPVpbbAbhPP-7" value="" style="line;strokeWidth=1;fillColor=none;align=left;verticalAlign=middle;spacingTop=-1;spacingLeft=3;spacingRight=3;rotatable=0;labelPosition=right;points=[];portConstraint=eastwest;strokeColor=inherit;" vertex="1" parent="pWZ-BDEYInPVpbbAbhPP-5">
          <mxGeometry y="110" width="220" height="10" as="geometry" />
        </mxCell>
        <mxCell id="pWZ-BDEYInPVpbbAbhPP-22" value="" style="edgeStyle=orthogonalEdgeStyle;rounded=0;orthogonalLoop=1;jettySize=auto;html=1;endArrow=diamond;endFill=1;" edge="1" parent="1" source="pWZ-BDEYInPVpbbAbhPP-13" target="pWZ-BDEYInPVpbbAbhPP-19">
          <mxGeometry relative="1" as="geometry" />
        </mxCell>
        <mxCell id="pWZ-BDEYInPVpbbAbhPP-13" value="Auditorium" style="swimlane;fontStyle=1;align=center;verticalAlign=top;childLayout=stackLayout;horizontal=1;startSize=26;horizontalStack=0;resizeParent=1;resizeParentMax=0;resizeLast=0;collapsible=1;marginBottom=0;whiteSpace=wrap;html=1;" vertex="1" parent="1">
          <mxGeometry x="310" y="90" width="290" height="140" as="geometry" />
        </mxCell>
        <mxCell id="pWZ-BDEYInPVpbbAbhPP-14" value="- id: Long&lt;br&gt;- name: String&lt;br&gt;- theatre: Theatre&lt;br&gt;- seats: List&amp;lt;Seat&amp;gt;&lt;br&gt;- features: List&amp;lt;Features&amp;gt; (2D, 3D, DolbyAudio)&lt;br&gt;- shows: List&amp;lt;Shows&amp;gt;" style="text;strokeColor=none;fillColor=none;align=left;verticalAlign=top;spacingLeft=4;spacingRight=4;overflow=hidden;rotatable=0;points=[[0,0.5],[1,0.5]];portConstraint=eastwest;whiteSpace=wrap;html=1;" vertex="1" parent="pWZ-BDEYInPVpbbAbhPP-13">
          <mxGeometry y="26" width="290" height="104" as="geometry" />
        </mxCell>
        <mxCell id="pWZ-BDEYInPVpbbAbhPP-15" value="" style="line;strokeWidth=1;fillColor=none;align=left;verticalAlign=middle;spacingTop=-1;spacingLeft=3;spacingRight=3;rotatable=0;labelPosition=right;points=[];portConstraint=eastwest;strokeColor=inherit;" vertex="1" parent="pWZ-BDEYInPVpbbAbhPP-13">
          <mxGeometry y="130" width="290" height="10" as="geometry" />
        </mxCell>
        <mxCell id="pWZ-BDEYInPVpbbAbhPP-17" style="edgeStyle=orthogonalEdgeStyle;rounded=0;orthogonalLoop=1;jettySize=auto;html=1;entryX=0.5;entryY=0;entryDx=0;entryDy=0;endArrow=diamond;endFill=0;exitX=0.5;exitY=1;exitDx=0;exitDy=0;" edge="1" parent="1" source="pWZ-BDEYInPVpbbAbhPP-1" target="pWZ-BDEYInPVpbbAbhPP-5">
          <mxGeometry relative="1" as="geometry" />
        </mxCell>
        <mxCell id="pWZ-BDEYInPVpbbAbhPP-30" value="" style="edgeStyle=orthogonalEdgeStyle;rounded=0;orthogonalLoop=1;jettySize=auto;html=1;endArrow=classic;endFill=1;" edge="1" parent="1" source="pWZ-BDEYInPVpbbAbhPP-19" target="pWZ-BDEYInPVpbbAbhPP-27">
          <mxGeometry relative="1" as="geometry">
            <Array as="points">
              <mxPoint x="455" y="450" />
              <mxPoint x="890" y="450" />
            </Array>
          </mxGeometry>
        </mxCell>
        <mxCell id="pWZ-BDEYInPVpbbAbhPP-63" value="" style="edgeStyle=orthogonalEdgeStyle;rounded=0;orthogonalLoop=1;jettySize=auto;html=1;endArrow=none;endFill=0;startArrow=classic;startFill=1;" edge="1" parent="1" source="pWZ-BDEYInPVpbbAbhPP-19" target="pWZ-BDEYInPVpbbAbhPP-60">
          <mxGeometry relative="1" as="geometry" />
        </mxCell>
        <mxCell id="pWZ-BDEYInPVpbbAbhPP-19" value="Seat" style="swimlane;fontStyle=1;align=center;verticalAlign=top;childLayout=stackLayout;horizontal=1;startSize=26;horizontalStack=0;resizeParent=1;resizeParentMax=0;resizeLast=0;collapsible=1;marginBottom=0;whiteSpace=wrap;html=1;" vertex="1" parent="1">
          <mxGeometry x="365" y="285" width="180" height="140" as="geometry" />
        </mxCell>
        <mxCell id="pWZ-BDEYInPVpbbAbhPP-20" value="- id: Long&lt;br&gt;- number: String&lt;br&gt;- row: int&lt;br&gt;- col: int&lt;br&gt;- auditorium: Auditorium&lt;br&gt;- seatType: SeatType" style="text;strokeColor=none;fillColor=none;align=left;verticalAlign=top;spacingLeft=4;spacingRight=4;overflow=hidden;rotatable=0;points=[[0,0.5],[1,0.5]];portConstraint=eastwest;whiteSpace=wrap;html=1;" vertex="1" parent="pWZ-BDEYInPVpbbAbhPP-19">
          <mxGeometry y="26" width="180" height="104" as="geometry" />
        </mxCell>
        <mxCell id="pWZ-BDEYInPVpbbAbhPP-21" value="" style="line;strokeWidth=1;fillColor=none;align=left;verticalAlign=middle;spacingTop=-1;spacingLeft=3;spacingRight=3;rotatable=0;labelPosition=right;points=[];portConstraint=eastwest;strokeColor=inherit;" vertex="1" parent="pWZ-BDEYInPVpbbAbhPP-19">
          <mxGeometry y="130" width="180" height="10" as="geometry" />
        </mxCell>
        <mxCell id="pWZ-BDEYInPVpbbAbhPP-34" value="" style="edgeStyle=orthogonalEdgeStyle;rounded=0;orthogonalLoop=1;jettySize=auto;html=1;" edge="1" parent="1" source="pWZ-BDEYInPVpbbAbhPP-23" target="pWZ-BDEYInPVpbbAbhPP-31">
          <mxGeometry relative="1" as="geometry" />
        </mxCell>
        <mxCell id="pWZ-BDEYInPVpbbAbhPP-38" value="" style="edgeStyle=orthogonalEdgeStyle;rounded=0;orthogonalLoop=1;jettySize=auto;html=1;endArrow=classic;endFill=1;entryX=-0.023;entryY=0.341;entryDx=0;entryDy=0;entryPerimeter=0;" edge="1" parent="1" source="pWZ-BDEYInPVpbbAbhPP-23" target="pWZ-BDEYInPVpbbAbhPP-36">
          <mxGeometry relative="1" as="geometry">
            <Array as="points">
              <mxPoint x="860" y="11" />
            </Array>
          </mxGeometry>
        </mxCell>
        <mxCell id="pWZ-BDEYInPVpbbAbhPP-23" value="Show" style="swimlane;fontStyle=1;align=center;verticalAlign=top;childLayout=stackLayout;horizontal=1;startSize=26;horizontalStack=0;resizeParent=1;resizeParentMax=0;resizeLast=0;collapsible=1;marginBottom=0;whiteSpace=wrap;html=1;" vertex="1" parent="1">
          <mxGeometry x="670" y="90" width="290" height="140" as="geometry" />
        </mxCell>
        <mxCell id="pWZ-BDEYInPVpbbAbhPP-24" value="- id: Long&lt;br&gt;- name: String&lt;br&gt;- movie: Movie&lt;br&gt;- auditorium: Auditorium&lt;br&gt;- startTime: DateTime&lt;br&gt;- endTime: DateTime&lt;br&gt;- language: Language" style="text;strokeColor=none;fillColor=none;align=left;verticalAlign=top;spacingLeft=4;spacingRight=4;overflow=hidden;rotatable=0;points=[[0,0.5],[1,0.5]];portConstraint=eastwest;whiteSpace=wrap;html=1;" vertex="1" parent="pWZ-BDEYInPVpbbAbhPP-23">
          <mxGeometry y="26" width="290" height="104" as="geometry" />
        </mxCell>
        <mxCell id="pWZ-BDEYInPVpbbAbhPP-25" value="" style="line;strokeWidth=1;fillColor=none;align=left;verticalAlign=middle;spacingTop=-1;spacingLeft=3;spacingRight=3;rotatable=0;labelPosition=right;points=[];portConstraint=eastwest;strokeColor=inherit;" vertex="1" parent="pWZ-BDEYInPVpbbAbhPP-23">
          <mxGeometry y="130" width="290" height="10" as="geometry" />
        </mxCell>
        <mxCell id="pWZ-BDEYInPVpbbAbhPP-27" value="SeatType" style="swimlane;fontStyle=1;align=center;verticalAlign=top;childLayout=stackLayout;horizontal=1;startSize=26;horizontalStack=0;resizeParent=1;resizeParentMax=0;resizeLast=0;collapsible=1;marginBottom=0;whiteSpace=wrap;html=1;" vertex="1" parent="1">
          <mxGeometry x="870" y="495" width="90" height="90" as="geometry" />
        </mxCell>
        <mxCell id="pWZ-BDEYInPVpbbAbhPP-28" value="- id: Long&lt;br&gt;- name: String" style="text;strokeColor=none;fillColor=none;align=left;verticalAlign=top;spacingLeft=4;spacingRight=4;overflow=hidden;rotatable=0;points=[[0,0.5],[1,0.5]];portConstraint=eastwest;whiteSpace=wrap;html=1;" vertex="1" parent="pWZ-BDEYInPVpbbAbhPP-27">
          <mxGeometry y="26" width="90" height="54" as="geometry" />
        </mxCell>
        <mxCell id="pWZ-BDEYInPVpbbAbhPP-29" value="" style="line;strokeWidth=1;fillColor=none;align=left;verticalAlign=middle;spacingTop=-1;spacingLeft=3;spacingRight=3;rotatable=0;labelPosition=right;points=[];portConstraint=eastwest;strokeColor=inherit;" vertex="1" parent="pWZ-BDEYInPVpbbAbhPP-27">
          <mxGeometry y="80" width="90" height="10" as="geometry" />
        </mxCell>
        <mxCell id="pWZ-BDEYInPVpbbAbhPP-39" style="edgeStyle=orthogonalEdgeStyle;rounded=0;orthogonalLoop=1;jettySize=auto;html=1;entryX=1;entryY=0.5;entryDx=0;entryDy=0;endArrow=diamond;endFill=0;" edge="1" parent="1" source="pWZ-BDEYInPVpbbAbhPP-31" target="pWZ-BDEYInPVpbbAbhPP-36">
          <mxGeometry relative="1" as="geometry">
            <Array as="points">
              <mxPoint x="1130" y="18" />
            </Array>
          </mxGeometry>
        </mxCell>
        <mxCell id="pWZ-BDEYInPVpbbAbhPP-44" style="edgeStyle=orthogonalEdgeStyle;rounded=0;orthogonalLoop=1;jettySize=auto;html=1;entryX=0.5;entryY=1;entryDx=0;entryDy=0;" edge="1" parent="1" source="pWZ-BDEYInPVpbbAbhPP-31" target="pWZ-BDEYInPVpbbAbhPP-41">
          <mxGeometry relative="1" as="geometry" />
        </mxCell>
        <mxCell id="pWZ-BDEYInPVpbbAbhPP-31" value="Movie" style="swimlane;fontStyle=1;align=center;verticalAlign=top;childLayout=stackLayout;horizontal=1;startSize=26;horizontalStack=0;resizeParent=1;resizeParentMax=0;resizeLast=0;collapsible=1;marginBottom=0;whiteSpace=wrap;html=1;" vertex="1" parent="1">
          <mxGeometry x="1040" y="90" width="290" height="160" as="geometry" />
        </mxCell>
        <mxCell id="pWZ-BDEYInPVpbbAbhPP-32" value="- id: Long&lt;br&gt;- name: String&lt;br&gt;- cast: Cast&lt;br&gt;- releaseDate: Date&lt;br&gt;- duration: double&lt;br&gt;- genre: String&lt;br&gt;- languages: List&amp;lt;Languages&amp;gt;&lt;br&gt;- features: List&amp;lt;Features&amp;gt; (2D, 3D, DolbyAudio)" style="text;strokeColor=none;fillColor=none;align=left;verticalAlign=top;spacingLeft=4;spacingRight=4;overflow=hidden;rotatable=0;points=[[0,0.5],[1,0.5]];portConstraint=eastwest;whiteSpace=wrap;html=1;" vertex="1" parent="pWZ-BDEYInPVpbbAbhPP-31">
          <mxGeometry y="26" width="290" height="124" as="geometry" />
        </mxCell>
        <mxCell id="pWZ-BDEYInPVpbbAbhPP-33" value="" style="line;strokeWidth=1;fillColor=none;align=left;verticalAlign=middle;spacingTop=-1;spacingLeft=3;spacingRight=3;rotatable=0;labelPosition=right;points=[];portConstraint=eastwest;strokeColor=inherit;" vertex="1" parent="pWZ-BDEYInPVpbbAbhPP-31">
          <mxGeometry y="150" width="290" height="10" as="geometry" />
        </mxCell>
        <mxCell id="pWZ-BDEYInPVpbbAbhPP-35" value="Language" style="swimlane;fontStyle=1;align=center;verticalAlign=top;childLayout=stackLayout;horizontal=1;startSize=26;horizontalStack=0;resizeParent=1;resizeParentMax=0;resizeLast=0;collapsible=1;marginBottom=0;whiteSpace=wrap;html=1;" vertex="1" parent="1">
          <mxGeometry x="930" y="-30" width="130" height="80" as="geometry" />
        </mxCell>
        <mxCell id="pWZ-BDEYInPVpbbAbhPP-36" value="- id: Long&lt;br&gt;- name: String" style="text;strokeColor=none;fillColor=none;align=left;verticalAlign=top;spacingLeft=4;spacingRight=4;overflow=hidden;rotatable=0;points=[[0,0.5],[1,0.5]];portConstraint=eastwest;whiteSpace=wrap;html=1;" vertex="1" parent="pWZ-BDEYInPVpbbAbhPP-35">
          <mxGeometry y="26" width="130" height="44" as="geometry" />
        </mxCell>
        <mxCell id="pWZ-BDEYInPVpbbAbhPP-37" value="" style="line;strokeWidth=1;fillColor=none;align=left;verticalAlign=middle;spacingTop=-1;spacingLeft=3;spacingRight=3;rotatable=0;labelPosition=right;points=[];portConstraint=eastwest;strokeColor=inherit;" vertex="1" parent="pWZ-BDEYInPVpbbAbhPP-35">
          <mxGeometry y="70" width="130" height="10" as="geometry" />
        </mxCell>
        <mxCell id="pWZ-BDEYInPVpbbAbhPP-41" value="Cast" style="swimlane;fontStyle=1;align=center;verticalAlign=top;childLayout=stackLayout;horizontal=1;startSize=26;horizontalStack=0;resizeParent=1;resizeParentMax=0;resizeLast=0;collapsible=1;marginBottom=0;whiteSpace=wrap;html=1;" vertex="1" parent="1">
          <mxGeometry x="1160" y="-30" width="130" height="80" as="geometry" />
        </mxCell>
        <mxCell id="pWZ-BDEYInPVpbbAbhPP-42" value="- id: Long&lt;br&gt;- actors: List&amp;lt;Actor&amp;gt;" style="text;strokeColor=none;fillColor=none;align=left;verticalAlign=top;spacingLeft=4;spacingRight=4;overflow=hidden;rotatable=0;points=[[0,0.5],[1,0.5]];portConstraint=eastwest;whiteSpace=wrap;html=1;" vertex="1" parent="pWZ-BDEYInPVpbbAbhPP-41">
          <mxGeometry y="26" width="130" height="44" as="geometry" />
        </mxCell>
        <mxCell id="pWZ-BDEYInPVpbbAbhPP-43" value="" style="line;strokeWidth=1;fillColor=none;align=left;verticalAlign=middle;spacingTop=-1;spacingLeft=3;spacingRight=3;rotatable=0;labelPosition=right;points=[];portConstraint=eastwest;strokeColor=inherit;" vertex="1" parent="pWZ-BDEYInPVpbbAbhPP-41">
          <mxGeometry y="70" width="130" height="10" as="geometry" />
        </mxCell>
        <mxCell id="pWZ-BDEYInPVpbbAbhPP-45" value="User" style="swimlane;fontStyle=1;align=center;verticalAlign=top;childLayout=stackLayout;horizontal=1;startSize=26;horizontalStack=0;resizeParent=1;resizeParentMax=0;resizeLast=0;collapsible=1;marginBottom=0;whiteSpace=wrap;html=1;" vertex="1" parent="1">
          <mxGeometry x="110" y="485" width="160" height="140" as="geometry" />
        </mxCell>
        <mxCell id="pWZ-BDEYInPVpbbAbhPP-46" value="- id: Long&lt;br&gt;- name: String&lt;br&gt;- age: int&lt;br&gt;- email: String&lt;br&gt;- phone: String&lt;br&gt;- bookings: List&amp;lt;Booking&amp;gt;" style="text;strokeColor=none;fillColor=none;align=left;verticalAlign=top;spacingLeft=4;spacingRight=4;overflow=hidden;rotatable=0;points=[[0,0.5],[1,0.5]];portConstraint=eastwest;whiteSpace=wrap;html=1;" vertex="1" parent="pWZ-BDEYInPVpbbAbhPP-45">
          <mxGeometry y="26" width="160" height="104" as="geometry" />
        </mxCell>
        <mxCell id="pWZ-BDEYInPVpbbAbhPP-47" value="" style="line;strokeWidth=1;fillColor=none;align=left;verticalAlign=middle;spacingTop=-1;spacingLeft=3;spacingRight=3;rotatable=0;labelPosition=right;points=[];portConstraint=eastwest;strokeColor=inherit;" vertex="1" parent="pWZ-BDEYInPVpbbAbhPP-45">
          <mxGeometry y="130" width="160" height="10" as="geometry" />
        </mxCell>
        <mxCell id="pWZ-BDEYInPVpbbAbhPP-54" value="" style="edgeStyle=orthogonalEdgeStyle;rounded=0;orthogonalLoop=1;jettySize=auto;html=1;endArrow=diamond;endFill=1;" edge="1" parent="1" source="pWZ-BDEYInPVpbbAbhPP-48" target="pWZ-BDEYInPVpbbAbhPP-51">
          <mxGeometry relative="1" as="geometry" />
        </mxCell>
        <mxCell id="pWZ-BDEYInPVpbbAbhPP-58" value="" style="edgeStyle=orthogonalEdgeStyle;rounded=0;orthogonalLoop=1;jettySize=auto;html=1;endArrow=diamond;endFill=1;" edge="1" parent="1" source="pWZ-BDEYInPVpbbAbhPP-48" target="pWZ-BDEYInPVpbbAbhPP-55">
          <mxGeometry relative="1" as="geometry" />
        </mxCell>
        <mxCell id="pWZ-BDEYInPVpbbAbhPP-48" value="Booking" style="swimlane;fontStyle=1;align=center;verticalAlign=top;childLayout=stackLayout;horizontal=1;startSize=26;horizontalStack=0;resizeParent=1;resizeParentMax=0;resizeLast=0;collapsible=1;marginBottom=0;whiteSpace=wrap;html=1;" vertex="1" parent="1">
          <mxGeometry x="400" y="480" width="160" height="130" as="geometry" />
        </mxCell>
        <mxCell id="pWZ-BDEYInPVpbbAbhPP-49" value="- id: Long&lt;br&gt;- show: Show&lt;br&gt;- user: User&lt;br&gt;- payments: List&amp;lt;Payment&amp;gt;&lt;br&gt;- status: BookingStatus&lt;br&gt;- ticket: List&amp;lt;Ticket&amp;gt;" style="text;strokeColor=none;fillColor=none;align=left;verticalAlign=top;spacingLeft=4;spacingRight=4;overflow=hidden;rotatable=0;points=[[0,0.5],[1,0.5]];portConstraint=eastwest;whiteSpace=wrap;html=1;" vertex="1" parent="pWZ-BDEYInPVpbbAbhPP-48">
          <mxGeometry y="26" width="160" height="94" as="geometry" />
        </mxCell>
        <mxCell id="pWZ-BDEYInPVpbbAbhPP-50" value="" style="line;strokeWidth=1;fillColor=none;align=left;verticalAlign=middle;spacingTop=-1;spacingLeft=3;spacingRight=3;rotatable=0;labelPosition=right;points=[];portConstraint=eastwest;strokeColor=inherit;" vertex="1" parent="pWZ-BDEYInPVpbbAbhPP-48">
          <mxGeometry y="120" width="160" height="10" as="geometry" />
        </mxCell>
        <mxCell id="pWZ-BDEYInPVpbbAbhPP-70" style="edgeStyle=orthogonalEdgeStyle;rounded=0;orthogonalLoop=1;jettySize=auto;html=1;entryX=0.5;entryY=1;entryDx=0;entryDy=0;" edge="1" parent="1" source="pWZ-BDEYInPVpbbAbhPP-51" target="pWZ-BDEYInPVpbbAbhPP-60">
          <mxGeometry relative="1" as="geometry" />
        </mxCell>
        <mxCell id="pWZ-BDEYInPVpbbAbhPP-51" value="Ticket" style="swimlane;fontStyle=1;align=center;verticalAlign=top;childLayout=stackLayout;horizontal=1;startSize=26;horizontalStack=0;resizeParent=1;resizeParentMax=0;resizeLast=0;collapsible=1;marginBottom=0;whiteSpace=wrap;html=1;" vertex="1" parent="1">
          <mxGeometry x="660" y="500" width="160" height="90" as="geometry" />
        </mxCell>
        <mxCell id="pWZ-BDEYInPVpbbAbhPP-52" value="- id: Long&lt;br&gt;- showSeat: ShowSeat" style="text;strokeColor=none;fillColor=none;align=left;verticalAlign=top;spacingLeft=4;spacingRight=4;overflow=hidden;rotatable=0;points=[[0,0.5],[1,0.5]];portConstraint=eastwest;whiteSpace=wrap;html=1;" vertex="1" parent="pWZ-BDEYInPVpbbAbhPP-51">
          <mxGeometry y="26" width="160" height="54" as="geometry" />
        </mxCell>
        <mxCell id="pWZ-BDEYInPVpbbAbhPP-53" value="" style="line;strokeWidth=1;fillColor=none;align=left;verticalAlign=middle;spacingTop=-1;spacingLeft=3;spacingRight=3;rotatable=0;labelPosition=right;points=[];portConstraint=eastwest;strokeColor=inherit;" vertex="1" parent="pWZ-BDEYInPVpbbAbhPP-51">
          <mxGeometry y="80" width="160" height="10" as="geometry" />
        </mxCell>
        <mxCell id="pWZ-BDEYInPVpbbAbhPP-55" value="Payment" style="swimlane;fontStyle=1;align=center;verticalAlign=top;childLayout=stackLayout;horizontal=1;startSize=26;horizontalStack=0;resizeParent=1;resizeParentMax=0;resizeLast=0;collapsible=1;marginBottom=0;whiteSpace=wrap;html=1;" vertex="1" parent="1">
          <mxGeometry x="345" y="660" width="270" height="180" as="geometry" />
        </mxCell>
        <mxCell id="pWZ-BDEYInPVpbbAbhPP-56" value="- id: Long&lt;br&gt;- amount: Double&lt;br&gt;- booking: Booking&lt;br&gt;- mode: Mode (UPI, CC, NB)&lt;br&gt;- providerId: String&lt;br&gt;- paymentReferenceId: String&lt;br&gt;- status: PaymentStatus (PENDING, CANCELED, REFUND)&lt;br&gt;- paymentType: (PAYMENT, REFUND)&amp;nbsp;" style="text;strokeColor=none;fillColor=none;align=left;verticalAlign=top;spacingLeft=4;spacingRight=4;overflow=hidden;rotatable=0;points=[[0,0.5],[1,0.5]];portConstraint=eastwest;whiteSpace=wrap;html=1;" vertex="1" parent="pWZ-BDEYInPVpbbAbhPP-55">
          <mxGeometry y="26" width="270" height="144" as="geometry" />
        </mxCell>
        <mxCell id="pWZ-BDEYInPVpbbAbhPP-57" value="" style="line;strokeWidth=1;fillColor=none;align=left;verticalAlign=middle;spacingTop=-1;spacingLeft=3;spacingRight=3;rotatable=0;labelPosition=right;points=[];portConstraint=eastwest;strokeColor=inherit;" vertex="1" parent="pWZ-BDEYInPVpbbAbhPP-55">
          <mxGeometry y="170" width="270" height="10" as="geometry" />
        </mxCell>
        <mxCell id="pWZ-BDEYInPVpbbAbhPP-59" value="" style="edgeStyle=orthogonalEdgeStyle;rounded=0;orthogonalLoop=1;jettySize=auto;html=1;endArrow=diamond;endFill=0;" edge="1" parent="1" source="pWZ-BDEYInPVpbbAbhPP-14" target="pWZ-BDEYInPVpbbAbhPP-24">
          <mxGeometry relative="1" as="geometry" />
        </mxCell>
        <mxCell id="pWZ-BDEYInPVpbbAbhPP-68" style="edgeStyle=orthogonalEdgeStyle;rounded=0;orthogonalLoop=1;jettySize=auto;html=1;" edge="1" parent="1" source="pWZ-BDEYInPVpbbAbhPP-60">
          <mxGeometry relative="1" as="geometry">
            <mxPoint x="740" y="230" as="targetPoint" />
          </mxGeometry>
        </mxCell>
        <mxCell id="pWZ-BDEYInPVpbbAbhPP-60" value="ShowSeat" style="swimlane;fontStyle=1;align=center;verticalAlign=top;childLayout=stackLayout;horizontal=1;startSize=26;horizontalStack=0;resizeParent=1;resizeParentMax=0;resizeLast=0;collapsible=1;marginBottom=0;whiteSpace=wrap;html=1;" vertex="1" parent="1">
          <mxGeometry x="680" y="305" width="120" height="100" as="geometry" />
        </mxCell>
        <mxCell id="pWZ-BDEYInPVpbbAbhPP-61" value="- id: Long&lt;br&gt;- show: Show&lt;br&gt;- seat: Seat&lt;br&gt;- status: SeatStatus" style="text;strokeColor=none;fillColor=none;align=left;verticalAlign=top;spacingLeft=4;spacingRight=4;overflow=hidden;rotatable=0;points=[[0,0.5],[1,0.5]];portConstraint=eastwest;whiteSpace=wrap;html=1;" vertex="1" parent="pWZ-BDEYInPVpbbAbhPP-60">
          <mxGeometry y="26" width="120" height="64" as="geometry" />
        </mxCell>
        <mxCell id="pWZ-BDEYInPVpbbAbhPP-62" value="" style="line;strokeWidth=1;fillColor=none;align=left;verticalAlign=middle;spacingTop=-1;spacingLeft=3;spacingRight=3;rotatable=0;labelPosition=right;points=[];portConstraint=eastwest;strokeColor=inherit;" vertex="1" parent="pWZ-BDEYInPVpbbAbhPP-60">
          <mxGeometry y="90" width="120" height="10" as="geometry" />
        </mxCell>
        <mxCell id="pWZ-BDEYInPVpbbAbhPP-69" style="edgeStyle=orthogonalEdgeStyle;rounded=0;orthogonalLoop=1;jettySize=auto;html=1;entryX=0.75;entryY=1;entryDx=0;entryDy=0;" edge="1" parent="1" source="pWZ-BDEYInPVpbbAbhPP-64" target="pWZ-BDEYInPVpbbAbhPP-23">
          <mxGeometry relative="1" as="geometry" />
        </mxCell>
        <mxCell id="pWZ-BDEYInPVpbbAbhPP-72" style="edgeStyle=orthogonalEdgeStyle;rounded=0;orthogonalLoop=1;jettySize=auto;html=1;entryX=0.75;entryY=0;entryDx=0;entryDy=0;" edge="1" parent="1" source="pWZ-BDEYInPVpbbAbhPP-64" target="pWZ-BDEYInPVpbbAbhPP-27">
          <mxGeometry relative="1" as="geometry" />
        </mxCell>
        <mxCell id="pWZ-BDEYInPVpbbAbhPP-64" value="ShowSeatType" style="swimlane;fontStyle=1;align=center;verticalAlign=top;childLayout=stackLayout;horizontal=1;startSize=26;horizontalStack=0;resizeParent=1;resizeParentMax=0;resizeLast=0;collapsible=1;marginBottom=0;whiteSpace=wrap;html=1;" vertex="1" parent="1">
          <mxGeometry x="840" y="300" width="140" height="100" as="geometry" />
        </mxCell>
        <mxCell id="pWZ-BDEYInPVpbbAbhPP-65" value="- id: Long&lt;br&gt;- show: Show&lt;br&gt;- seatType: SeatType&lt;br&gt;- price: Double" style="text;strokeColor=none;fillColor=none;align=left;verticalAlign=top;spacingLeft=4;spacingRight=4;overflow=hidden;rotatable=0;points=[[0,0.5],[1,0.5]];portConstraint=eastwest;whiteSpace=wrap;html=1;" vertex="1" parent="pWZ-BDEYInPVpbbAbhPP-64">
          <mxGeometry y="26" width="140" height="64" as="geometry" />
        </mxCell>
        <mxCell id="pWZ-BDEYInPVpbbAbhPP-66" value="" style="line;strokeWidth=1;fillColor=none;align=left;verticalAlign=middle;spacingTop=-1;spacingLeft=3;spacingRight=3;rotatable=0;labelPosition=right;points=[];portConstraint=eastwest;strokeColor=inherit;" vertex="1" parent="pWZ-BDEYInPVpbbAbhPP-64">
          <mxGeometry y="90" width="140" height="10" as="geometry" />
        </mxCell>
        <mxCell id="pWZ-BDEYInPVpbbAbhPP-71" style="edgeStyle=orthogonalEdgeStyle;rounded=0;orthogonalLoop=1;jettySize=auto;html=1;entryX=1;entryY=0.5;entryDx=0;entryDy=0;" edge="1" parent="1" source="pWZ-BDEYInPVpbbAbhPP-49" target="pWZ-BDEYInPVpbbAbhPP-46">
          <mxGeometry relative="1" as="geometry" />
        </mxCell>
        <mxCell id="pWZ-BDEYInPVpbbAbhPP-73" value="&lt;div style=&quot;box-sizing:border-box;width:100%;background:#e4e4e4;padding:2px;&quot;&gt;city&lt;/div&gt;&lt;table style=&quot;width:100%;font-size:1em;&quot; cellpadding=&quot;2&quot; cellspacing=&quot;0&quot;&gt;&lt;tbody&gt;&lt;tr&gt;&lt;td&gt;PK&lt;br&gt;&lt;br&gt;&lt;/td&gt;&lt;td&gt;id&lt;br&gt;name&lt;/td&gt;&lt;/tr&gt;&lt;/tbody&gt;&lt;/table&gt;" style="verticalAlign=top;align=left;overflow=fill;html=1;whiteSpace=wrap;" vertex="1" parent="1">
          <mxGeometry x="-140" y="1089" width="140" height="111" as="geometry" />
        </mxCell>
        <mxCell id="pWZ-BDEYInPVpbbAbhPP-74" value="&lt;div style=&quot;box-sizing:border-box;width:100%;background:#e4e4e4;padding:2px;&quot;&gt;address&lt;/div&gt;&lt;table style=&quot;width:100%;font-size:1em;&quot; cellpadding=&quot;2&quot; cellspacing=&quot;0&quot;&gt;&lt;tbody&gt;&lt;tr&gt;&lt;td&gt;PK&lt;br&gt;&lt;br&gt;&lt;br&gt;&lt;br&gt;&lt;br&gt;FK&lt;/td&gt;&lt;td&gt;id&lt;br&gt;address&lt;br&gt;pincode&lt;br&gt;latitude&lt;br&gt;longitude&lt;br&gt;city_id&lt;/td&gt;&lt;/tr&gt;&lt;/tbody&gt;&lt;/table&gt;" style="verticalAlign=top;align=left;overflow=fill;html=1;whiteSpace=wrap;" vertex="1" parent="1">
          <mxGeometry x="40" y="1090" width="140" height="110" as="geometry" />
        </mxCell>
        <mxCell id="pWZ-BDEYInPVpbbAbhPP-75" value="&lt;div style=&quot;box-sizing:border-box;width:100%;background:#e4e4e4;padding:2px;&quot;&gt;theatre&lt;/div&gt;&lt;table style=&quot;width:100%;font-size:1em;&quot; cellpadding=&quot;2&quot; cellspacing=&quot;0&quot;&gt;&lt;tbody&gt;&lt;tr&gt;&lt;td&gt;PK&lt;br&gt;&lt;br&gt;FK&lt;/td&gt;&lt;td&gt;id&lt;br&gt;name&lt;br&gt;address_id&lt;/td&gt;&lt;/tr&gt;&lt;/tbody&gt;&lt;/table&gt;" style="verticalAlign=top;align=left;overflow=fill;html=1;whiteSpace=wrap;" vertex="1" parent="1">
          <mxGeometry x="240" y="1090" width="140" height="110" as="geometry" />
        </mxCell>
        <mxCell id="pWZ-BDEYInPVpbbAbhPP-76" value="&lt;div style=&quot;box-sizing:border-box;width:100%;background:#e4e4e4;padding:2px;&quot;&gt;auditorium&lt;/div&gt;&lt;table style=&quot;width:100%;font-size:1em;&quot; cellpadding=&quot;2&quot; cellspacing=&quot;0&quot;&gt;&lt;tbody&gt;&lt;tr&gt;&lt;td&gt;PK&lt;br&gt;&lt;br&gt;FK&lt;/td&gt;&lt;td&gt;id&lt;br&gt;name&lt;br&gt;theatre_id&lt;/td&gt;&lt;/tr&gt;&lt;/tbody&gt;&lt;/table&gt;" style="verticalAlign=top;align=left;overflow=fill;html=1;whiteSpace=wrap;" vertex="1" parent="1">
          <mxGeometry x="420" y="1089" width="140" height="111" as="geometry" />
        </mxCell>
        <mxCell id="pWZ-BDEYInPVpbbAbhPP-77" value="&lt;div style=&quot;box-sizing:border-box;width:100%;background:#e4e4e4;padding:2px;&quot;&gt;feature&lt;/div&gt;&lt;table style=&quot;width:100%;font-size:1em;&quot; cellpadding=&quot;2&quot; cellspacing=&quot;0&quot;&gt;&lt;tbody&gt;&lt;tr&gt;&lt;td&gt;PK&lt;br&gt;&lt;br&gt;&lt;/td&gt;&lt;td&gt;id&lt;br&gt;name&lt;/td&gt;&lt;/tr&gt;&lt;/tbody&gt;&lt;/table&gt;" style="verticalAlign=top;align=left;overflow=fill;html=1;whiteSpace=wrap;" vertex="1" parent="1">
          <mxGeometry x="600" y="1085" width="130" height="115" as="geometry" />
        </mxCell>
        <mxCell id="pWZ-BDEYInPVpbbAbhPP-78" value="&lt;div style=&quot;box-sizing:border-box;width:100%;background:#e4e4e4;padding:2px;&quot;&gt;auditorium_feature&lt;/div&gt;&lt;table style=&quot;width:100%;font-size:1em;&quot; cellpadding=&quot;2&quot; cellspacing=&quot;0&quot;&gt;&lt;tbody&gt;&lt;tr&gt;&lt;td&gt;PK&lt;br&gt;FK&lt;br&gt;FK&lt;/td&gt;&lt;td&gt;id&lt;br&gt;auditorium_id&lt;br&gt;feature_id&lt;/td&gt;&lt;/tr&gt;&lt;/tbody&gt;&lt;/table&gt;" style="verticalAlign=top;align=left;overflow=fill;html=1;whiteSpace=wrap;" vertex="1" parent="1">
          <mxGeometry x="780" y="1085" width="140" height="115" as="geometry" />
        </mxCell>
        <mxCell id="pWZ-BDEYInPVpbbAbhPP-79" value="&lt;div style=&quot;box-sizing:border-box;width:100%;background:#e4e4e4;padding:2px;&quot;&gt;seat&lt;/div&gt;&lt;table style=&quot;width:100%;font-size:1em;&quot; cellpadding=&quot;2&quot; cellspacing=&quot;0&quot;&gt;&lt;tbody&gt;&lt;tr&gt;&lt;td&gt;PK&lt;br&gt;&lt;br&gt;&lt;br&gt;&lt;br&gt;FK&lt;br&gt;FK&lt;/td&gt;&lt;td&gt;id&lt;br&gt;number&lt;br&gt;row&lt;br&gt;col&lt;br&gt;auditorium_id&lt;br&gt;seat_type_id&lt;/td&gt;&lt;/tr&gt;&lt;/tbody&gt;&lt;/table&gt;" style="verticalAlign=top;align=left;overflow=fill;html=1;whiteSpace=wrap;" vertex="1" parent="1">
          <mxGeometry x="-140" y="1260" width="140" height="140" as="geometry" />
        </mxCell>
        <mxCell id="pWZ-BDEYInPVpbbAbhPP-80" value="&lt;div style=&quot;box-sizing:border-box;width:100%;background:#e4e4e4;padding:2px;&quot;&gt;seat_type&lt;/div&gt;&lt;table style=&quot;width:100%;font-size:1em;&quot; cellpadding=&quot;2&quot; cellspacing=&quot;0&quot;&gt;&lt;tbody&gt;&lt;tr&gt;&lt;td&gt;PK&lt;br&gt;&lt;br&gt;&lt;/td&gt;&lt;td&gt;id&lt;br&gt;name&lt;/td&gt;&lt;/tr&gt;&lt;/tbody&gt;&lt;/table&gt;" style="verticalAlign=top;align=left;overflow=fill;html=1;whiteSpace=wrap;" vertex="1" parent="1">
          <mxGeometry x="50" y="1260" width="130" height="60" as="geometry" />
        </mxCell>
        <mxCell id="pWZ-BDEYInPVpbbAbhPP-81" value="&lt;div style=&quot;box-sizing:border-box;width:100%;background:#e4e4e4;padding:2px;&quot;&gt;show&lt;/div&gt;&lt;table style=&quot;width:100%;font-size:1em;&quot; cellpadding=&quot;2&quot; cellspacing=&quot;0&quot;&gt;&lt;tbody&gt;&lt;tr&gt;&lt;td&gt;PK&lt;br&gt;&lt;br&gt;FK&lt;br&gt;FK&lt;br&gt;&lt;br&gt;&lt;br&gt;FK&lt;br&gt;&lt;br&gt;&lt;/td&gt;&lt;td&gt;id&lt;br&gt;name&lt;br&gt;movie_id&lt;br&gt;auditorium_id&lt;br&gt;start_time&lt;br&gt;end_time&lt;br&gt;language_id&lt;br&gt;&lt;br&gt;&lt;/td&gt;&lt;/tr&gt;&lt;/tbody&gt;&lt;/table&gt;" style="verticalAlign=top;align=left;overflow=fill;html=1;whiteSpace=wrap;" vertex="1" parent="1">
          <mxGeometry x="240" y="1260" width="150" height="140" as="geometry" />
        </mxCell>
        <mxCell id="pWZ-BDEYInPVpbbAbhPP-83" value="&lt;div style=&quot;box-sizing:border-box;width:100%;background:#e4e4e4;padding:2px;&quot;&gt;language&lt;/div&gt;&lt;table style=&quot;width:100%;font-size:1em;&quot; cellpadding=&quot;2&quot; cellspacing=&quot;0&quot;&gt;&lt;tbody&gt;&lt;tr&gt;&lt;td&gt;PK&lt;br&gt;&lt;br&gt;&lt;/td&gt;&lt;td&gt;id&lt;br&gt;name&lt;/td&gt;&lt;/tr&gt;&lt;/tbody&gt;&lt;/table&gt;" style="verticalAlign=top;align=left;overflow=fill;html=1;whiteSpace=wrap;" vertex="1" parent="1">
          <mxGeometry x="50" y="1340" width="130" height="60" as="geometry" />
        </mxCell>
        <mxCell id="pWZ-BDEYInPVpbbAbhPP-84" value="&lt;div style=&quot;box-sizing:border-box;width:100%;background:#e4e4e4;padding:2px;&quot;&gt;movie&lt;/div&gt;&lt;table style=&quot;width:100%;font-size:1em;&quot; cellpadding=&quot;2&quot; cellspacing=&quot;0&quot;&gt;&lt;tbody&gt;&lt;tr&gt;&lt;td&gt;PK&lt;br&gt;&lt;br&gt;FK&lt;br&gt;&lt;br&gt;&lt;/td&gt;&lt;td&gt;id&lt;br&gt;name&lt;br&gt;cast_id&lt;br&gt;release_date&lt;/td&gt;&lt;/tr&gt;&lt;/tbody&gt;&lt;/table&gt;" style="verticalAlign=top;align=left;overflow=fill;html=1;whiteSpace=wrap;" vertex="1" parent="1">
          <mxGeometry x="420" y="1260" width="150" height="140" as="geometry" />
        </mxCell>
        <mxCell id="pWZ-BDEYInPVpbbAbhPP-85" value="&lt;div style=&quot;box-sizing:border-box;width:100%;background:#e4e4e4;padding:2px;&quot;&gt;movie_language&lt;/div&gt;&lt;table style=&quot;width:100%;font-size:1em;&quot; cellpadding=&quot;2&quot; cellspacing=&quot;0&quot;&gt;&lt;tbody&gt;&lt;tr&gt;&lt;td&gt;PK&lt;br&gt;FK&lt;br&gt;FK&lt;/td&gt;&lt;td&gt;id&lt;br&gt;movie_id&lt;br&gt;language_id&lt;/td&gt;&lt;/tr&gt;&lt;/tbody&gt;&lt;/table&gt;" style="verticalAlign=top;align=left;overflow=fill;html=1;whiteSpace=wrap;" vertex="1" parent="1">
          <mxGeometry x="600" y="1260" width="150" height="140" as="geometry" />
        </mxCell>
        <mxCell id="pWZ-BDEYInPVpbbAbhPP-86" value="&lt;div style=&quot;box-sizing:border-box;width:100%;background:#e4e4e4;padding:2px;&quot;&gt;cast&lt;/div&gt;&lt;table style=&quot;width:100%;font-size:1em;&quot; cellpadding=&quot;2&quot; cellspacing=&quot;0&quot;&gt;&lt;tbody&gt;&lt;tr&gt;&lt;td&gt;PK&lt;br&gt;FK&lt;br&gt;FK&lt;/td&gt;&lt;td&gt;id&lt;br&gt;movie_id&lt;br&gt;actor_id&lt;/td&gt;&lt;/tr&gt;&lt;/tbody&gt;&lt;/table&gt;" style="verticalAlign=top;align=left;overflow=fill;html=1;whiteSpace=wrap;" vertex="1" parent="1">
          <mxGeometry x="780" y="1260" width="130" height="70" as="geometry" />
        </mxCell>
        <mxCell id="pWZ-BDEYInPVpbbAbhPP-87" value="&lt;div style=&quot;box-sizing:border-box;width:100%;background:#e4e4e4;padding:2px;&quot;&gt;actor&lt;/div&gt;&lt;table style=&quot;width:100%;font-size:1em;&quot; cellpadding=&quot;2&quot; cellspacing=&quot;0&quot;&gt;&lt;tbody&gt;&lt;tr&gt;&lt;td&gt;PK&lt;br&gt;&lt;br&gt;&lt;br&gt;&lt;/td&gt;&lt;td&gt;id&lt;br&gt;name&lt;br&gt;&lt;br&gt;&lt;/td&gt;&lt;/tr&gt;&lt;/tbody&gt;&lt;/table&gt;" style="verticalAlign=top;align=left;overflow=fill;html=1;whiteSpace=wrap;" vertex="1" parent="1">
          <mxGeometry x="780" y="1340" width="130" height="60" as="geometry" />
        </mxCell>
        <mxCell id="pWZ-BDEYInPVpbbAbhPP-88" value="&lt;div style=&quot;box-sizing:border-box;width:100%;background:#e4e4e4;padding:2px;&quot;&gt;user&lt;/div&gt;&lt;table style=&quot;width:100%;font-size:1em;&quot; cellpadding=&quot;2&quot; cellspacing=&quot;0&quot;&gt;&lt;tbody&gt;&lt;tr&gt;&lt;td&gt;PK&lt;br&gt;&lt;br&gt;&lt;br&gt;&lt;br&gt;&lt;br&gt;&lt;br&gt;&lt;br&gt;&lt;/td&gt;&lt;td&gt;id&lt;br&gt;name&lt;br&gt;age&lt;br&gt;email&lt;br&gt;phone&lt;br&gt;password&lt;br&gt;&lt;br&gt;&lt;/td&gt;&lt;/tr&gt;&lt;/tbody&gt;&lt;/table&gt;" style="verticalAlign=top;align=left;overflow=fill;html=1;whiteSpace=wrap;" vertex="1" parent="1">
          <mxGeometry x="-140" y="1440" width="140" height="130" as="geometry" />
        </mxCell>
        <mxCell id="pWZ-BDEYInPVpbbAbhPP-89" value="&lt;div style=&quot;box-sizing:border-box;width:100%;background:#e4e4e4;padding:2px;&quot;&gt;booking&lt;/div&gt;&lt;table style=&quot;width:100%;font-size:1em;&quot; cellpadding=&quot;2&quot; cellspacing=&quot;0&quot;&gt;&lt;tbody&gt;&lt;tr&gt;&lt;td&gt;PK&lt;br&gt;FK&lt;br&gt;FK&lt;br&gt;FK&lt;br&gt;&lt;br&gt;&lt;br&gt;&lt;br&gt;&lt;/td&gt;&lt;td&gt;id&lt;br&gt;show_id&lt;br&gt;user_id&lt;br&gt;status_id&lt;br&gt;booking_date&lt;br&gt;number_of_seats&lt;br&gt;&lt;br&gt;&lt;/td&gt;&lt;/tr&gt;&lt;/tbody&gt;&lt;/table&gt;" style="verticalAlign=top;align=left;overflow=fill;html=1;whiteSpace=wrap;" vertex="1" parent="1">
          <mxGeometry x="50" y="1440" width="150" height="130" as="geometry" />
        </mxCell>
        <mxCell id="pWZ-BDEYInPVpbbAbhPP-90" value="&lt;div style=&quot;box-sizing:border-box;width:100%;background:#e4e4e4;padding:2px;&quot;&gt;ticket&lt;/div&gt;&lt;table style=&quot;width:100%;font-size:1em;&quot; cellpadding=&quot;2&quot; cellspacing=&quot;0&quot;&gt;&lt;tbody&gt;&lt;tr&gt;&lt;td&gt;PK&lt;br&gt;FK&lt;br&gt;FK&lt;/td&gt;&lt;td&gt;id&lt;br&gt;booking_id&lt;br&gt;seat_id&lt;/td&gt;&lt;/tr&gt;&lt;/tbody&gt;&lt;/table&gt;" style="verticalAlign=top;align=left;overflow=fill;html=1;whiteSpace=wrap;" vertex="1" parent="1">
          <mxGeometry x="240" y="1440" width="150" height="90" as="geometry" />
        </mxCell>
        <mxCell id="pWZ-BDEYInPVpbbAbhPP-91" value="&lt;div style=&quot;box-sizing:border-box;width:100%;background:#e4e4e4;padding:2px;&quot;&gt;payment&lt;/div&gt;&lt;table style=&quot;width:100%;font-size:1em;&quot; cellpadding=&quot;2&quot; cellspacing=&quot;0&quot;&gt;&lt;tbody&gt;&lt;tr&gt;&lt;td&gt;PK&lt;br&gt;&lt;br&gt;FK&lt;br&gt;FK&lt;br&gt;FK&lt;br&gt;FK&lt;br&gt;Fk&lt;br&gt;&lt;br&gt;&lt;br&gt;&lt;/td&gt;&lt;td&gt;id&lt;br&gt;amount&lt;br&gt;booking_id&lt;br&gt;mode_id&lt;br&gt;provider_id&lt;br&gt;payment_type_id (payment, refund)&lt;br&gt;payment_status_id (in_progress, failed, success)&lt;br&gt;&lt;br&gt;&lt;/td&gt;&lt;/tr&gt;&lt;/tbody&gt;&lt;/table&gt;" style="verticalAlign=top;align=left;overflow=fill;html=1;whiteSpace=wrap;" vertex="1" parent="1">
          <mxGeometry x="420" y="1440" width="250" height="140" as="geometry" />
        </mxCell>
        <mxCell id="pWZ-BDEYInPVpbbAbhPP-92" value="&lt;div style=&quot;box-sizing:border-box;width:100%;background:#e4e4e4;padding:2px;&quot;&gt;show_seat&lt;/div&gt;&lt;table style=&quot;width:100%;font-size:1em;&quot; cellpadding=&quot;2&quot; cellspacing=&quot;0&quot;&gt;&lt;tbody&gt;&lt;tr&gt;&lt;td&gt;PK&lt;br&gt;FK&lt;br&gt;FK&lt;br&gt;&lt;br&gt;&lt;/td&gt;&lt;td&gt;id&lt;br&gt;show_id&lt;br&gt;seat_id&lt;br&gt;status_id&lt;/td&gt;&lt;/tr&gt;&lt;/tbody&gt;&lt;/table&gt;" style="verticalAlign=top;align=left;overflow=fill;html=1;whiteSpace=wrap;" vertex="1" parent="1">
          <mxGeometry x="710" y="1440" width="130" height="90" as="geometry" />
        </mxCell>
        <mxCell id="pWZ-BDEYInPVpbbAbhPP-93" value="&lt;div style=&quot;box-sizing:border-box;width:100%;background:#e4e4e4;padding:2px;&quot;&gt;show_seat_type&lt;/div&gt;&lt;table style=&quot;width:100%;font-size:1em;&quot; cellpadding=&quot;2&quot; cellspacing=&quot;0&quot;&gt;&lt;tbody&gt;&lt;tr&gt;&lt;td&gt;PK&lt;br&gt;FK&lt;br&gt;FK&lt;br&gt;&lt;br&gt;&lt;/td&gt;&lt;td&gt;id&lt;br&gt;show_id&lt;br&gt;seat_type_id&lt;br&gt;price&lt;/td&gt;&lt;/tr&gt;&lt;/tbody&gt;&lt;/table&gt;" style="verticalAlign=top;align=left;overflow=fill;html=1;whiteSpace=wrap;" vertex="1" parent="1">
          <mxGeometry x="880" y="1440" width="130" height="90" as="geometry" />
        </mxCell>
      </root>
    </mxGraphModel>
  </diagram>
</mxfile>
